<svg width="120" height="120" viewBox="0 0 120 120" fill="none" xmlns="http://www.w3.org/2000/svg">
  <rect width="120" height="120" rx="26" fill="#F5F7FD"/>
  <g transform="translate(6 6) scale(0.9)">
    <path d="M83 75 A40 40 0 1 1 83 29" stroke="#14245C" stroke-width="8" stroke-linecap="round" fill="none"/>
    <path d="M40 84 L34 102 L54 88 Z" fill="#14245C"/>
    <circle cx="47" cy="42" r="9.5" fill="#2F6BFF"/>
    <path d="M47 57 L47 84" stroke="#14245C" stroke-width="11" stroke-linecap="round"/>
    <rect x="60" y="62" width="13" height="24" rx="5.5" fill="#14245C"/>
    <rect x="70" y="52" width="32" height="34" rx="10" fill="#2F6BFF"/>
    <path d="M74 55 L74 32 a8 8 0 0 1 16 0 L90 55 Z" fill="#2F6BFF"/>
    <path d="M94 60 L94 80 M85.5 60 L85.5 80" stroke="#1E4FD6" stroke-width="2.6" stroke-linecap="round"/>
  </g>
</svg>
